<svg xmlns="http://www.w3.org/2000/svg" width="128" height="128" viewBox="0 0 128 128">
  <rect width="128" height="128" rx="24" fill="#f7f4ec"/>
  <g transform="translate(16,16)">
    <g fill="#201d16" fill-opacity="0.1">
      <rect x="2" y="2" width="20" height="20" rx="3"/><rect x="26" y="2" width="20" height="20" rx="3"/><rect x="50" y="2" width="20" height="20" rx="3"/><rect x="74" y="2" width="20" height="20" rx="3"/>
      <rect x="2" y="26" width="20" height="20" rx="3"/><rect x="26" y="26" width="20" height="20" rx="3"/><rect x="50" y="26" width="20" height="20" rx="3"/><rect x="74" y="26" width="20" height="20" rx="3"/>
      <rect x="2" y="50" width="20" height="20" rx="3"/><rect x="26" y="50" width="20" height="20" rx="3"/><rect x="50" y="50" width="20" height="20" rx="3"/><rect x="74" y="50" width="20" height="20" rx="3"/>
      <rect x="2" y="74" width="20" height="20" rx="3"/><rect x="26" y="74" width="20" height="20" rx="3"/><rect x="50" y="74" width="20" height="20" rx="3"/><rect x="74" y="74" width="20" height="20" rx="3"/>
    </g>
    <g fill="#201d16">
      <rect x="5" y="17" width="7" height="27.5" rx="2"/><rect x="12" y="44.5" width="24" height="7" rx="2"/><rect x="36" y="17" width="7" height="27.5" rx="2"/><rect x="36" y="51.5" width="7" height="27.5" rx="2"/>
      <rect x="60" y="10" width="24" height="7" rx="2"/><rect x="84" y="17" width="7" height="27.5" rx="2"/><rect x="60" y="44.5" width="24" height="7" rx="2"/><rect x="53" y="51.5" width="7" height="27.5" rx="2"/><rect x="60" y="79" width="24" height="7" rx="2"/>
    </g>
  </g>
</svg>
